<svg xmlns="http://www.w3.org/2000/svg" xmlns:xlink="http://www.w3.org/1999/xlink" viewBox="0 0 307.12 307.12"><defs><style>.cls-1{fill:#073042;}.cls-2{fill:#7bd69f;}.cls-3{fill:url(#Degradado_sin_nombre_27);}.cls-4{fill:#7affb4;}</style><linearGradient id="Degradado_sin_nombre_27" x1="147.8" y1="195.97" x2="133.28" y2="210.49" gradientTransform="matrix(1.28, 0.71, -1.28, 0.71, 212.12, -30.5)" gradientUnits="userSpaceOnUse"><stop offset="0" stop-color="#7bd69f"/><stop offset="1" stop-color="#073042"/></linearGradient></defs><title>icon</title><g id="Capa_2" data-name="Capa 2"><g id="Capa_1-2" data-name="Capa 1"><rect class="cls-1" width="307.12" height="307.12"/><path class="cls-2" d="M116.76,192.05l14.59-14.51,11.71,11.54,8.74-8.66L140.09,168.8l11.71-11.71,20.37,20.45,8.74-8.74-20.37-20.45,11.63-11.63,11.71,11.63,8.74-8.74L180.91,128l11.71-11.71L213,136.72l8.74-8.74-20.37-20.45L213,95.9l11.62,11.63,8.83-8.74L221.73,87.16l11.71-11.71L253.72,95.9l8.83-8.74L242.18,66.71l14.51-14.59,35.05,35L151.8,227.09Z"/><rect class="cls-3" x="113.45" y="187.09" width="37.11" height="49.54" transform="translate(-111.15 155.4) rotate(-45)"/><path class="cls-4" d="M35.28,175h118.4a.09.09,0,0,1,.09.09v27.77a20,20,0,0,1-20,20H47.18a20,20,0,0,1-20-20V183.06A8.09,8.09,0,0,1,35.28,175Z" transform="translate(167.14 -5.72) rotate(45)"/></g></g></svg>