<svg xmlns="http://www.w3.org/2000/svg" xmlns:xlink="http://www.w3.org/1999/xlink" viewBox="0 0 254.65 200.17"><defs><style>.cls-1{fill:#0059c1;}.cls-2{fill:url(#Degradado_sin_nombre_35);}.cls-3{fill:#4285f4;}</style><linearGradient id="Degradado_sin_nombre_35" x1="108.04" y1="146.63" x2="81.8" y2="172.87" gradientTransform="translate(140.76 -20.33) rotate(45)" gradientUnits="userSpaceOnUse"><stop offset="0" stop-color="#0059c1"/><stop offset="0.81" stop-color="#073042"/></linearGradient></defs><title>Recurso 2</title><g id="Capa_2" data-name="Capa 2"><g id="Capa_1-2" data-name="Capa 1"><path class="cls-1" d="M79.67,139.93l14.6-14.51L106,137l8.74-8.66L103,116.68,114.72,105l20.37,20.45,8.74-8.74L123.46,96.23,135.09,84.6,146.8,96.23l8.74-8.74L143.83,75.86l11.71-11.71L175.9,84.6l8.74-8.74L164.28,55.41,175.9,43.79l11.63,11.62,8.82-8.74L184.64,35.05l11.71-11.71,20.29,20.45,8.82-8.74L205.09,14.6,219.61,0l35,35.05L114.72,175Z"/><rect class="cls-2" x="76.37" y="134.98" width="37.11" height="49.54" transform="translate(-85.16 113.91) rotate(-45)"/><path class="cls-3" d="M-1.81,122.85h118.4a.09.09,0,0,1,.09.09v27.77a20,20,0,0,1-20,20H10.09a20,20,0,0,1-20-20V130.94a8.09,8.09,0,0,1,8.09-8.09Z" transform="translate(119.43 5.24) rotate(45)"/></g></g></svg>